<svg width="13" height="13" viewBox="0 0 13 13" fill="none" xmlns="http://www.w3.org/2000/svg">
<path d="M11.5556 2.1665H1.44445C1.25291 2.1665 1.06921 2.24259 0.933763 2.37804C0.79832 2.51348 0.722229 2.69718 0.722229 2.88873V10.1109C0.722229 10.3025 0.79832 10.4862 0.933763 10.6216C1.06921 10.7571 1.25291 10.8332 1.44445 10.8332H11.5556C11.7471 10.8332 11.9308 10.7571 12.0663 10.6216C12.2017 10.4862 12.2778 10.3025 12.2778 10.1109V2.88873C12.2778 2.69718 12.2017 2.51348 12.0663 2.37804C11.9308 2.24259 11.7471 2.1665 11.5556 2.1665ZM10.9995 10.1109H2.0439L4.57167 7.4965L4.05167 6.99456L1.44445 9.69206V3.43762L5.93306 7.90456C6.06838 8.03907 6.25143 8.11458 6.44223 8.11458C6.63303 8.11458 6.81608 8.03907 6.9514 7.90456L11.5556 3.32567V9.64512L8.89778 6.98734L8.38862 7.4965L10.9995 10.1109ZM1.91751 2.88873H10.9706L6.44223 7.39178L1.91751 2.88873Z" fill="black" fill-opacity="0.25"/>
</svg>
